<?xml version="1.0" encoding="UTF-8"?>
<svg version="1.1" xmlns="http://www.w3.org/2000/svg" width="269" height="270">
<path d="M0 0 C9.9 0 19.8 0 30 0 C30 9.9 30 19.8 30 30 C39.9 30 49.8 30 60 30 C60 20.1 60 10.2 60 0 C69.9 0 79.8 0 90 0 C90 9.9 90 19.8 90 30 C92.69929687 29.94199219 95.39859375 29.88398438 98.1796875 29.82421875 C100.82418894 29.78510927 103.46865688 29.75481559 106.11328125 29.7253418 C107.93667262 29.70035721 109.75996548 29.66635721 111.58300781 29.62280273 C123.48659408 29.34574774 132.24718484 29.44768531 141.8125 37.3125 C147.82924723 44.70450375 150.15677389 50.23037754 150.09765625 59.82421875 C150.09553383 61.11632011 150.09553383 61.11632011 150.09336853 62.43452454 C150.0877714 65.18555169 150.07521946 67.93649744 150.0625 70.6875 C150.05748463 72.5527332 150.05292179 74.41796767 150.04882812 76.28320312 C150.03865384 80.85552534 150.01907787 85.42767155 150 90 C159.9 90 169.8 90 180 90 C180 99.9 180 109.8 180 120 C170.1 120 160.2 120 150 120 C150 129.9 150 139.8 150 150 C159.9 150 169.8 150 180 150 C180 159.9 180 169.8 180 180 C170.1 180 160.2 180 150 180 C150.08701172 184.04894531 150.08701172 184.04894531 150.17578125 188.1796875 C150.21489073 190.82418894 150.24518441 193.46865688 150.2746582 196.11328125 C150.29964279 197.93667262 150.33364279 199.75996548 150.37719727 201.58300781 C150.65425226 213.48659408 150.55231469 222.24718484 142.6875 231.8125 C135.29549625 237.82924723 129.76962246 240.15677389 120.17578125 240.09765625 C119.31438034 240.0962413 118.45297943 240.09482635 117.56547546 240.09336853 C114.81444831 240.0877714 112.06350256 240.07521946 109.3125 240.0625 C107.4472668 240.05748463 105.58203233 240.05292179 103.71679688 240.04882812 C99.14447466 240.03865384 94.57232845 240.01907787 90 240 C90 249.9 90 259.8 90 270 C80.1 270 70.2 270 60 270 C60 260.1 60 250.2 60 240 C50.1 240 40.2 240 30 240 C30 249.9 30 259.8 30 270 C20.1 270 10.2 270 0 270 C0 260.1 0 250.2 0 240 C-2.69929688 240.05800781 -5.39859375 240.11601562 -8.1796875 240.17578125 C-10.82418894 240.21489073 -13.46865688 240.24518441 -16.11328125 240.2746582 C-17.93667262 240.29964279 -19.75996548 240.33364279 -21.58300781 240.37719727 C-33.48659408 240.65425226 -42.24718484 240.55231469 -51.8125 232.6875 C-57.82924723 225.29549625 -60.15677389 219.76962246 -60.09765625 210.17578125 C-60.0962413 209.31438034 -60.09482635 208.45297943 -60.09336853 207.56547546 C-60.0877714 204.81444831 -60.07521946 202.06350256 -60.0625 199.3125 C-60.05748463 197.4472668 -60.05292179 195.58203233 -60.04882812 193.71679688 C-60.03865384 189.14447466 -60.01907787 184.57232845 -60 180 C-69.57 180 -79.14 180 -89 180 C-89 170.1 -89 160.2 -89 150 C-79.43 150 -69.86 150 -60 150 C-60 140.1 -60 130.2 -60 120 C-69.57 120 -79.14 120 -89 120 C-89 110.1 -89 100.2 -89 90 C-79.43 90 -69.86 90 -60 90 C-60.05800781 87.30070312 -60.11601563 84.60140625 -60.17578125 81.8203125 C-60.21489073 79.17581106 -60.24518441 76.53134312 -60.2746582 73.88671875 C-60.29964279 72.06332738 -60.33364279 70.24003452 -60.37719727 68.41699219 C-60.65425226 56.51340592 -60.55231469 47.75281516 -52.6875 38.1875 C-45.29549625 32.17075277 -39.76962246 29.84322611 -30.17578125 29.90234375 C-28.88367989 29.90446617 -28.88367989 29.90446617 -27.56547546 29.90663147 C-24.81444831 29.9122286 -22.06350256 29.92478054 -19.3125 29.9375 C-17.4472668 29.94251537 -15.58203233 29.94707821 -13.71679688 29.95117188 C-9.14447466 29.96134616 -4.57232845 29.98092213 0 30 C0 20.1 0 10.2 0 0 Z M-30 60 C-30 109.5 -30 159 -30 210 C19.5 210 69 210 120 210 C120 160.5 120 111 120 60 C70.5 60 21 60 -30 60 Z " fill="#8EFF71" transform="translate(89,0)"/>
<path d="M0 0 C29.7 0 59.4 0 90 0 C90 29.7 90 59.4 90 90 C60.3 90 30.6 90 0 90 C0 60.3 0 30.6 0 0 Z " fill="#8EFF71" transform="translate(89,90)"/>
</svg>
